<?xml version="1.0" encoding="UTF-8" standalone="no"?>
<svg
   width="1024"
   height="1024"
   viewBox="0 0 1024 1024"
   version="1.1"
   id="macOS-icon-template"
   sodipodi0:docname="macOS-Icon-Template.svg"
   xmlns="http://www.w3.org/2000/svg"
   xmlns:svg="http://www.w3.org/2000/svg"
   xmlns:sodipodi0="http://sodipodi.sourceforge.net/DTD/sodipodi-0.0.dtd">
  <sodipodi0:namedview
     id="namedview"
     pagecolor="#e9e9ec"
     bordercolor="#666666"
     borderopacity="0.5"
     showgrid="false">
    <sodipodi0:guide
       position="100,1720"
       orientation="1,0"
       id="guideL" />
    <sodipodi0:guide
       position="924,1720"
       orientation="1,0"
       id="guideR" />
    <sodipodi0:guide
       position="100,1820"
       orientation="0,1"
       id="guideT" />
    <sodipodi0:guide
       position="100,796"
       orientation="0,1"
       id="guideB" />
  </sodipodi0:namedview>
  <defs
     id="defs">
    <path
       id="squirclePath"
       d="m 512,100 c -206.3,0 -288,5.5 -349,66.5 -57.5,57.5 -63,139.2 -63,345.5 0,206.3 5.5,288 63,346.5 61,60 142.7,65.5 349,65.5 206.3,0 288,-5.5 346.5,-65.5 C 918.5,800 924,718.3 924,512 924,305.7 918.5,224 858.5,163 800,105.5 718.3,100 512,100 Z" />
    <clipPath
       id="squircleClip"
       clipPathUnits="userSpaceOnUse">
      <use
         href="#squirclePath"
         id="clipUse" />
    </clipPath>
  </defs>
  <g
     id="layerIcon"
     style="display:inline">
    <g
       id="iconExport">
      <rect
         x="0"
         y="0"
         width="1024"
         height="1024"
         id="exportSpacer"
         style="fill:none;stroke:none" />
      <g
         id="iconClipped">
        <rect
           id="squircleBase"
           x="0"
           y="0"
           width="1024"
           height="1024"
           fill="#ffffff" />
        <rect
           x="0"
           y="0"
           width="1024"
           height="1024"
           id="bgBlue"
           style="fill:#0000ff;fill-opacity:0.7" />
        <path
           id="glyph"
           aria-label="#"
           style="font-weight:bold;font-size:192px;font-family:Helvetica, Arial, sans-serif;-inkscape-font-specification:'Helvetica, Arial, sans-serif Bold';text-anchor:middle;fill:#ffffff;stroke-width:4.38495"
           d="m 396.58661,447.61933 h -97.49205 l 21.50559,-59.40762 h 97.49206 L 470.18354,245.7041 h 95.10252 l -52.09132,142.50759 h 79.33176 l 50.65762,-142.5076 h 95.10255 l -50.65764,142.5076 h 96.05836 l -21.50559,59.40764 h -96.05834 l -38.71008,103.25614 h 97.49203 l -21.50559,59.40762 h -97.49207 l -51.13553,141.44678 h -95.10253 l 51.13555,-141.44678 h -78.37598 l -52.09132,141.44678 h -95.10253 l 52.09133,-141.44678 h -97.01413 l 21.50559,-59.40762 h 97.01412 z M 532.31083,550.87547 571.0209,447.61933 h -79.33175 l -37.27638,103.25614 z" />
      </g>
    </g>
  </g>
</svg>
